<?xml version="1.0" encoding="UTF-8"?>
<svg version="1.1" xmlns="http://www.w3.org/2000/svg" width="32" height="32">
<path d="M0 0 C10.56 0 21.12 0 32 0 C32 10.56 32 21.12 32 32 C21.44 32 10.88 32 0 32 C0 21.44 0 10.88 0 0 Z " fill="#565656" transform="translate(0,0)"/>
<path d="M0 0 C0.99 0.33 1.98 0.66 3 1 C3 1.66 3 2.32 3 3 C7.455 2.505 7.455 2.505 12 2 C12 5.63 12 9.26 12 13 C1.44 13 -9.12 13 -20 13 C-20 9.7 -20 6.4 -20 3 C-14.8588219 2.31450959 -10.08128417 1.91674863 -4.875 2.125 C-1.86818251 2.31866559 -1.86818251 2.31866559 0 0 Z " fill="#565656" transform="translate(20,19)"/>
<path d="M0 0 C2 2 2 2 2.375 4.375 C2 7 2 7 0.375 9.3125 C-2.64620436 11.4591452 -4.36727627 11.47383353 -8 11 C-10 9 -10 9 -10.3125 5.5625 C-10 2 -10 2 -8.9375 0 C-5.80557344 -1.61647822 -3.32814714 -0.78665296 0 0 Z " fill="#F1F1F1" transform="translate(20,11)"/>
<path d="M0 0 C1.32 0 2.64 0 4 0 C3.67 2.97 3.34 5.94 3 9 C4.32 9 5.64 9 7 9 C6.67 9.99 6.34 10.98 6 12 C3.69 12 1.38 12 -1 12 C-1.02687279 10.18757948 -1.04633715 8.37504767 -1.0625 6.5625 C-1.07410156 5.55316406 -1.08570312 4.54382813 -1.09765625 3.50390625 C-1 1 -1 1 0 0 Z " fill="#EAEAEA" transform="translate(2,10)"/>
<path d="M0 0 C1.32 0 2.64 0 4 0 C3.67 2.97 3.34 5.94 3 9 C4.32 9 5.64 9 7 9 C6.67 9.99 6.34 10.98 6 12 C3.69 12 1.38 12 -1 12 C-1.02687279 10.18757948 -1.04633715 8.37504767 -1.0625 6.5625 C-1.07410156 5.55316406 -1.08570312 4.54382813 -1.09765625 3.50390625 C-1 1 -1 1 0 0 Z " fill="#EBEBEB" transform="translate(24,10)"/>
<path d="M0 0 C0.99 0 1.98 0 3 0 C3.33 1.98 3.66 3.96 4 6 C2.68 6.33 1.36 6.66 0 7 C-1.125 2.25 -1.125 2.25 0 0 Z " fill="#6F6F6F" transform="translate(14,13)"/>
</svg>
