<svg xmlns="http://www.w3.org/2000/svg">
<!--html-->
  <symbol id="html" viewBox="0 0 32 32">
    <path fill="#e44d26" d="M4 29 2 0h28l-2 29-12 3z"/>
    <path fill="#f16529" d="m25 27 3-25H16v28z"/>
    <path fill="#ebebeb" d="M16 6H7l1 11h8v-4h-5V9h5V6zm0 16-4-1v-3H8l1 6 7 2z"/>
    <path fill="#fff" d="M16 17h4v4l-4 1v4l7-2 1-11h-8zm9-10V6h-9v3h9z"/>
  </symbol>
<!--css-->
  <svg id="css" viewBox="0 0 512 512">
    <path fill="#264de4" d="M71 461 30 0h452l-41 461-185 51z"/>
    <path fill="#2965f1" d="m405 431 36-393H256v435z"/>
    <path fill="#ebebeb" d="m124 209 6 56h126v-56zm-5-58h137V94H114zm137 204-63-17-4-45h-57l8 89 116 32z"/>
    <path fill="#fff" d="M256 209v56h69l-6 73-63 17v59l116-32 1-9 13-149 1-15 10-115H256v57h79l-5 58z"/>
  </svg>
<!--sass-->
  <symbol id="sass" viewBox="0 0 64 64">
    <path fill="#cf649a" d="m55 36-6 1-1-3v-3l1-2-2-1-2 1a14 14 0 0 0-1 1l-4 8-1-2v-3l1-2-1-1h-3v2l-5 10-1 2c-1 0 0 0 0 0v1h-1v-2l2-6-1-1h-1v1s1-5-2-5c-2 0-4 2-6 4l-6 4v-1c-4-3-10-6-10-11 0-2 1-7 13-13 9-5 17-3 19 0 1 4-5 12-15 13-4 0-6-1-6-2h-1v1l4 3c1 0 6 1 12-2 6-2 10-9 9-14-1-6-11-8-20-4-5 1-10 4-15 8-4 5-5 9-5 10 1 6 9 10 13 13h-1c-2 1-8 4-9 8-2 4 0 6 1 7 5 1 9-1 11-5 2-3 2-8 1-10h1l3-2-1 4 2 7h1c2 0 2-1 3-2l2-4s-1 5 1 5l3-2 2-5 3-7 1 3 1 3v1a36 36 0 0 1-1 1l-3 4v1h4a8 8 0 0 0 2-1l2-4-1-3 1-1 3-6 1 3 1 3-4 4 1 3h2l2-1c1-1 3-2 3-4l-1-2c2-1 4-2 6-1 6 0 7 4 7 5l-2 3h-1l1 1c0-1 3-2 3-4 0-4-3-7-9-7zM12 50c-2 2-4 3-5 2-2-1-1-4 1-6l5-3 1-1c1 3 0 6-2 8zm14-9-3 5v-6l2-4 2-1c1 1-1 5-1 6zm11 5h-1l2-2 1-1-2 3zm8-2 1-2 2-2v1c0 2-2 3-3 3z"/>
  </symbol>
<!--javascript-->
  <symbol id="javascript" viewBox="0 0 32 32">
    <path fill="#f5de19" d="M2 2h28v28H2z"/>
    <path d="M21 24a3 3 0 0 0 2 1l2-1-2-2c-2-1-4-2-4-4s2-3 4-3a4 4 0 0 1 4 2l-2 1a2 2 0 0 0-2-1 1 1 0 0 0-1 1l2 2c3 1 4 2 4 4 0 3-2 4-5 4a5 5 0 0 1-4-3Zm-9 0 1 1 2-1v-9h2v9c0 3-1 4-4 4a4 4 0 0 1-4-3Z"/>
  </symbol>
<!--React JS-->
  <symbol id="reactjs" viewBox="0 0 32 32">
    <g fill="none" fill-rule="evenodd" transform="matrix(.057 0 0 .057 1 2)">
      <circle cx="269.5" cy="237.6" r="50.2" fill="#00d8ff"/>
      <g stroke="#00d8ff" stroke-width="24">
        <path d="M270 136c67 0 129 9 177 26 56 19 91 49 91 76 0 28-37 59-98 79-46 16-107 24-170 24-66 0-128-8-175-24-59-20-94-52-94-79s33-56 89-76c47-16 112-26 180-26z"/>
        <path d="M181 187c33-58 73-108 111-141C337 7 380-8 403 5c25 14 33 62 20 125-9 47-33 104-65 159-32 57-70 107-107 140-47 41-92 56-116 42-23-13-32-57-21-115 9-50 33-110 67-169z"/>
        <path d="M181 289c-34-58-57-117-66-166-12-59-4-104 19-117 25-14 70 2 119 45 36 32 73 80 105 136 33 57 58 114 67 162 12 62 3 108-21 122-23 13-65-1-110-39-38-33-79-84-113-143z"/>
      </g>
    </g>
  </symbol>
<!--Tailwind CSS-->
  <symbol id="tailwindcss" viewBox="0 0 800 480">
    <path fill="#06b6d4" d="M400 0C293 0 227 53 200 160c40-53 87-73 140-60 30 8 52 30 76 54 39 40 85 86 184 86 107 0 173-53 200-160-40 53-87 73-140 60-31-8-52-30-76-54-40-40-85-86-184-86zM200 240C93 240 27 293 0 400c40-53 87-73 140-60 31 8 52 30 76 54 40 40 85 86 184 86 107 0 173-53 200-160-40 53-87 73-140 60-30-8-52-30-76-54-39-40-85-86-184-86z"/>
  </symbol>
<!--git-->
  <symbol id="git" viewBox="0 0 32 32">
    <path fill="#f03c2e" d="M31 15 17 1a2 2 0 0 0-2 0l-3 3 3 3 3 1a2 2 0 0 1 0 2l4 4h2a2 2 0 1 1-3 4l-1-3-3-3v9a3 3 0 0 1 1 0 2 2 0 1 1-4 4 2 2 0 0 1 0-4h1v-9l-1-1a2 2 0 0 1 0-2l-4-4-9 10a2 2 0 0 0 0 2l14 14a2 2 0 0 0 2 0l14-13a2 2 0 0 0 0-3"/>
  </symbol>
<!--github-->
  <symbol id="github" viewBox="0 0 256 250">
    <path fill="currentColor" d="M128 0a128 128 0 0 0-40 249c6 2 8-2 8-6v-24c-36 8-43-15-43-15-6-14-14-18-14-18-12-8 1-8 1-8 12 1 19 13 19 13 12 20 30 14 38 11 1-9 4-14 8-17-29-4-59-15-59-64 0-14 5-25 14-34-2-3-6-16 1-34 0 0 11-3 35 13a123 123 0 0 1 64 0c24-16 35-13 35-13 7 18 3 31 1 34 9 9 14 20 14 34 0 49-30 60-59 63 5 4 9 12 9 24v35c0 4 2 8 9 6A128 128 0 0 0 128 0ZM48 182l-2 1-1-2 2-1 1 2Zm6 6-2-1-1-2h3v3Zm5 7c-1 1-3 0-3-1v-3c1-1 2 0 3 1v3Zm7 8h-3c-2-1-2-3-1-3h3l1 3Zm9 3c0 1-1 2-3 1l-2-2c0-1 2-2 3-1 2 0 3 1 2 2Zm11 1c0 2-1 2-3 2l-2-1c0-2 1-2 2-2l3 1Zm11 0c0 1-1 2-3 2-1 1-3 0-3-1s1-2 3-2c1-1 2 0 3 1Z"/>
  </symbol>
<!--Vite-->
  <symbol id="vite" viewBox="-2 0 260 258">
    <linearGradient id="a" x1="-.8%" x2="57.6%" y1="7.7%" y2="78.4%">
      <stop offset="0" stop-color="#41d1ff"/>
      <stop offset="1" stop-color="#bd34fe"/>
    </linearGradient>
    <linearGradient id="b" x1="43.4%" x2="50.3%" y1="2.2%" y2="89%">
      <stop offset="0" stop-color="#ffea83"/>
      <stop offset=".1" stop-color="#ffdd35"/>
      <stop offset="1" stop-color="#ffa800"/>
    </linearGradient>
    <path fill="url(#a)" d="M255 38 135 253c-3 4-9 4-11 0L1 38c-3-5 1-11 7-10l120 22a7 7 0 0 0 2 0l118-22c6-1 10 5 7 10z"/>
    <path fill="url(#b)" d="M185 0 96 18a3 3 0 0 0-2 3l-6 92a3 3 0 0 0 4 3l25-5c2-1 5 1 4 3l-7 37c-1 2 1 4 4 3l15-4c3-1 5 1 4 3l-11 57c-1 4 4 6 6 2l1-2 72-144c2-3-1-5-3-5l-26 5c-2 0-4-2-3-4l16-58c1-2-1-4-4-4z"/>
  </symbol>
<!--vercel-->
  <symbol id="vercel" viewBox="0 0 64 64">
    <path d="m32 4 32 55H0L32 4Z"/>
  </symbol>
</svg>
